# xmcd
#
# Track frame offsets: 
#        150
#        24335
#        43932
#        62697
#        73638
#        78749
#        108319
#        160967
#        189424
#        206214
#        220094
#        230567
#        248856
#        265428
#
# Disc length: 4006 seconds
#
# Revision: 0
# Processed by: cddbd v1.4PL0 Copyright (c) Steve Scherf et al.
# Submitted via: ExactAudioCopy v0.90a11
#
DISCID=ce0fa40e
DTITLE=Silvio Rodriguez - Causas Y Azares
DYEAR=1900
DGENRE=
TTITLE0=Causas Y Azares
TTITLE1=Canto Arena
TTITLE2=Solo el Amor
TTITLE3=Historia de las Sillas
TTITLE4=Cancion en Harapos [Fragmento]
TTITLE5=Cancion en Harapos
TTITLE6=Hallazgo de las Piedras-Te Conozco-Coda
TTITLE7=Sueno de Una Noche de Verano
TTITLE8=En Mi Calle
TTITLE9=Cuando Digo Futuro
TTITLE10=El Pintor de las Mujeres Soles
TTITLE11=Boga Boga
TTITLE12=Reqiuem
TTITLE13=No Hacen Falta Alas
EXTD=
EXTT0=
EXTT1=
EXTT2=
EXTT3=
EXTT4=
EXTT5=
EXTT6=
EXTT7=
EXTT8=
EXTT9=
EXTT10=
EXTT11=
EXTT12=
EXTT13=
PLAYORDER=
